<?xml version="1.0" encoding="utf-8"?>
<!-- Generator: Adobe Illustrator 24.1.0, SVG Export Plug-In . SVG Version: 6.00 Build 0)  -->
<svg version="1.1" id="Layer_1" xmlns="http://www.w3.org/2000/svg" xmlns:xlink="http://www.w3.org/1999/xlink" x="0px" y="0px"
	 viewBox="0 0 1932 1737" style="enable-background:new 0 0 1932 1737;" xml:space="preserve">
<style type="text/css">
	.st0{fill:#7942EE;stroke:#000000;stroke-width:6;stroke-linejoin:round;stroke-miterlimit:10;}
	.st1{fill:none;stroke:#000000;stroke-width:6;stroke-linejoin:round;stroke-miterlimit:10;}
	.st2{opacity:0.3;stroke:#000000;stroke-width:6;stroke-linecap:round;stroke-linejoin:round;stroke-miterlimit:10;}
	.st3{fill:#1AF3C0;stroke:#000000;stroke-width:6;stroke-linejoin:round;stroke-miterlimit:10;}
	.st4{fill:#F1D7C9;stroke:#000000;stroke-width:6;stroke-linejoin:round;stroke-miterlimit:10;}
	.st5{fill:#CCCCCC;stroke:#000000;stroke-width:6;stroke-linecap:round;stroke-linejoin:round;stroke-miterlimit:10;}
	.st6{fill:#0062FF;stroke:#000000;stroke-width:6;stroke-linejoin:round;stroke-miterlimit:10;}
	.st7{fill:#00AFFF;stroke:#000000;stroke-width:6;stroke-linejoin:round;stroke-miterlimit:10;}
	.st8{fill:#E75A4E;stroke:#000000;stroke-width:6;stroke-linejoin:round;stroke-miterlimit:10;}
	.st9{fill:#FF71F5;stroke:#000000;stroke-width:6;stroke-linejoin:round;stroke-miterlimit:10;}
	.st10{fill:#FFD500;stroke:#000000;stroke-width:6;stroke-linejoin:round;stroke-miterlimit:10;}
	.st11{fill:none;stroke:#000000;stroke-width:6;stroke-miterlimit:10;}
	.st12{stroke:#000000;stroke-width:6;stroke-linejoin:round;stroke-miterlimit:10;}
	.st13{fill:#7F482F;stroke:#000000;stroke-width:6;stroke-linejoin:round;stroke-miterlimit:10;}
	.st14{fill:#8C7156;stroke:#000000;stroke-width:6;stroke-linejoin:round;stroke-miterlimit:10;}
	.st15{fill:none;stroke:#000000;stroke-width:6;stroke-linecap:round;stroke-linejoin:round;stroke-miterlimit:10;}
	.st16{fill:#EF9A6A;stroke:#000000;stroke-width:6;stroke-linejoin:round;stroke-miterlimit:10;}
	.st17{fill:#948077;stroke:#000000;stroke-width:6;stroke-linejoin:round;stroke-miterlimit:10;}
	.st18{fill:#686868;}
	.st19{fill:#151D39;stroke:#000000;stroke-width:6;stroke-linecap:round;stroke-linejoin:round;stroke-miterlimit:10;}
	.st20{fill:#7942EE;stroke:#000000;stroke-width:6;stroke-linecap:round;stroke-linejoin:round;stroke-miterlimit:10;}
	.st21{fill:#FFFFFF;stroke:#000000;stroke-width:6;stroke-miterlimit:10;}
	.st22{fill:#EDEDED;stroke:#000000;stroke-width:6;stroke-miterlimit:10;}
	.st23{fill:#0062FF;stroke:#000000;stroke-width:6;stroke-miterlimit:10;}
	.st24{fill:#DFDFDF;stroke:#000000;stroke-width:6;stroke-miterlimit:10;}
	.st25{fill:#CCCCCC;stroke:#000000;stroke-width:6;stroke-linejoin:round;stroke-miterlimit:10;}
	.st26{fill:none;stroke:#CCCCCC;stroke-width:6;stroke-linecap:round;stroke-linejoin:round;stroke-miterlimit:10;}
	.st27{fill:#151D39;stroke:#000000;stroke-width:6;stroke-linejoin:round;stroke-miterlimit:10;}
	.st28{fill:#00E9A9;}
	.st29{fill:#FFF3DC;stroke:#000000;stroke-width:6;stroke-linecap:round;stroke-linejoin:round;stroke-miterlimit:10;}
	.st30{fill:none;stroke:#000000;stroke-width:7;stroke-linecap:round;stroke-linejoin:round;stroke-miterlimit:10;}
	.st31{fill:#FFD500;stroke:#000000;stroke-width:6;stroke-linecap:round;stroke-linejoin:round;stroke-miterlimit:10;}
	.st32{fill:#E75A4E;}
	.st33{fill:#F1D7C9;stroke:#000000;stroke-width:6;stroke-miterlimit:10;}
	.st34{fill:#D5825B;stroke:#000000;stroke-width:6;stroke-linejoin:round;stroke-miterlimit:10;}
	.st35{fill:#332D2B;stroke:#000000;stroke-width:6;stroke-linejoin:round;stroke-miterlimit:10;}
	.st36{fill:#1E1A19;}
	.st37{fill:#B3B3B3;stroke:#000000;stroke-width:6;stroke-linecap:round;stroke-linejoin:round;stroke-miterlimit:10;}
	.st38{fill:#4D4D4D;stroke:#000000;stroke-width:6;stroke-linecap:round;stroke-linejoin:round;stroke-miterlimit:10;}
	.st39{fill:#0062FF;stroke:#000000;stroke-width:6;stroke-linecap:round;stroke-linejoin:round;stroke-miterlimit:10;}
	.st40{fill:#666666;stroke:#000000;stroke-width:6;stroke-linecap:round;stroke-linejoin:round;stroke-miterlimit:10;}
	.st41{fill:#FF71F5;stroke:#000000;stroke-width:6;stroke-miterlimit:10;}
	.st42{clip-path:url(#SVGID_2_);}
	.st43{stroke:#000000;stroke-width:4;stroke-linejoin:round;stroke-miterlimit:10;}
	.st44{stroke:#000000;stroke-width:4;stroke-miterlimit:10;}
	.st45{stroke:#000000;stroke-width:4;stroke-linecap:round;stroke-linejoin:round;stroke-miterlimit:10;}
	.st46{stroke:#000000;stroke-width:3;stroke-linecap:round;stroke-linejoin:round;stroke-miterlimit:10;}
	.st47{clip-path:url(#SVGID_4_);}
	.st48{fill:#00E9A9;stroke:#000000;stroke-width:6;stroke-miterlimit:10;}
	.st49{clip-path:url(#SVGID_6_);}
	.st50{fill:#FFFFFF;stroke:#000000;stroke-width:6;stroke-linejoin:round;stroke-miterlimit:10;}
	.st51{fill:#FF9100;stroke:#000000;stroke-width:6;stroke-miterlimit:10;}
	.st52{clip-path:url(#SVGID_8_);}
	.st53{fill:#8C7156;stroke:#000000;stroke-width:4;stroke-linejoin:round;stroke-miterlimit:10;}
	.st54{fill:#F1D7C9;stroke:#000000;stroke-width:4;stroke-miterlimit:10;}
	.st55{fill:none;stroke:#000000;stroke-width:4;stroke-linecap:round;stroke-linejoin:round;stroke-miterlimit:10;}
	.st56{fill:#D5825B;stroke:#000000;stroke-width:4;stroke-linejoin:round;stroke-miterlimit:10;}
	.st57{fill:#332D2B;stroke:#000000;stroke-width:4;stroke-linejoin:round;stroke-miterlimit:10;}
	.st58{fill:#151D39;stroke:#000000;stroke-width:4;stroke-linejoin:round;stroke-miterlimit:10;}
	.st59{fill:none;stroke:#1AF3C0;stroke-width:12;stroke-linejoin:round;stroke-miterlimit:10;}
	.st60{fill:none;stroke:#FA4F45;stroke-width:12;stroke-linejoin:round;stroke-miterlimit:10;}
	.st61{clip-path:url(#SVGID_10_);}
	.st62{clip-path:url(#SVGID_14_);}
	.st63{clip-path:url(#SVGID_16_);}
	.st64{clip-path:url(#SVGID_18_);fill:#0062FF;stroke:#000000;stroke-width:6;stroke-miterlimit:10;}
	.st65{clip-path:url(#SVGID_18_);}
	.st66{fill:#FFC300;stroke:#000000;stroke-width:6;stroke-miterlimit:10;}
	.st67{fill:#FA4F45;stroke:#000000;stroke-width:6;stroke-miterlimit:10;}
	.st68{fill:#FF71F5;stroke:#000000;stroke-width:6;stroke-linecap:round;stroke-linejoin:round;stroke-miterlimit:10;}
	.st69{fill:#FFFFFF;}
	.st70{fill:none;stroke:#1AF3C0;stroke-width:6;stroke-linecap:round;stroke-linejoin:round;stroke-miterlimit:10;}
	.st71{fill:#1AF3C0;stroke:#000000;stroke-width:6;stroke-linecap:round;stroke-linejoin:round;stroke-miterlimit:10;}
	.st72{clip-path:url(#SVGID_20_);}
	.st73{clip-path:url(#SVGID_22_);}
	.st74{clip-path:url(#SVGID_24_);}
	.st75{fill:#E6E6E6;stroke:#000000;stroke-width:6;stroke-linecap:round;stroke-linejoin:round;stroke-miterlimit:10;}
	.st76{fill:#FA4F45;stroke:#000000;stroke-width:6;stroke-linecap:round;stroke-linejoin:round;stroke-miterlimit:10;}
	.st77{clip-path:url(#SVGID_26_);}
	.st78{fill:#00AFFF;stroke:#000000;stroke-width:6;stroke-miterlimit:10;}
	.st79{clip-path:url(#SVGID_28_);}
	.st80{fill:#1AF3C0;stroke:#000000;stroke-width:6;stroke-miterlimit:10;}
	.st81{fill:#FFFFFF;stroke:#000000;stroke-width:6;stroke-linecap:round;stroke-linejoin:round;stroke-miterlimit:10;}
	.st82{fill:#E4CEAA;stroke:#000000;stroke-width:6;stroke-linecap:round;stroke-linejoin:round;stroke-miterlimit:10;}
	.st83{fill:#E4CEAA;stroke:#000000;stroke-width:6;stroke-linejoin:round;stroke-miterlimit:10;}
	.st84{opacity:0.75;clip-path:url(#SVGID_30_);}
	.st85{clip-path:url(#SVGID_32_);}
	.st86{opacity:0.75;clip-path:url(#SVGID_36_);}
	.st87{opacity:0.3;fill:#FFFFFF;stroke:#000000;stroke-width:6;stroke-linecap:round;stroke-linejoin:round;stroke-miterlimit:10;}
	.st88{opacity:0.3;fill:#0062FF;stroke:#000000;stroke-width:6;stroke-linecap:round;stroke-linejoin:round;stroke-miterlimit:10;}
	.st89{fill:#B3B3B3;}
	.st90{clip-path:url(#SVGID_38_);}
	.st91{clip-path:url(#SVGID_40_);}
	.st92{clip-path:url(#SVGID_42_);}
	.st93{fill:#00E9A9;stroke:#000000;stroke-width:6;stroke-linejoin:round;stroke-miterlimit:10;}
	.st94{fill:#FFD500;stroke:#000000;stroke-width:6;stroke-miterlimit:10;}
	.st95{fill:#919191;stroke:#000000;stroke-width:6;stroke-miterlimit:10;}
	.st96{fill:#C98462;stroke:#000000;stroke-width:6;stroke-linejoin:round;stroke-miterlimit:10;}
	.st97{fill:#C1B7A8;stroke:#000000;stroke-width:6;stroke-linecap:round;stroke-linejoin:round;stroke-miterlimit:10;}
	.st98{fill:#322D2B;stroke:#000000;stroke-width:6;stroke-linejoin:round;stroke-miterlimit:10;}
	.st99{fill:#1D1A19;}
	.st100{clip-path:url(#SVGID_44_);}
	.st101{fill:#E3E3E3;stroke:#000000;stroke-width:6;stroke-miterlimit:10;}
	.st102{fill:#C8C8C8;stroke:#000000;stroke-width:6;stroke-linejoin:round;stroke-miterlimit:10;}
	.st103{fill:none;stroke:#1AF3C0;stroke-width:6;stroke-miterlimit:10;}
	.st104{fill:#AA8A6C;}
	.st105{fill:#7942EE;stroke:#000000;stroke-width:6;stroke-miterlimit:10;}
	.st106{fill:#151D39;stroke:#000000;stroke-width:6;stroke-linecap:round;stroke-miterlimit:10;}
	.st107{clip-path:url(#SVGID_46_);}
	.st108{fill:#151D39;stroke:#000000;stroke-width:6;stroke-miterlimit:10;}
	.st109{fill:#159372;stroke:#000000;stroke-width:6;stroke-linecap:round;stroke-linejoin:round;stroke-miterlimit:10;}
	.st110{fill:#159372;stroke:#000000;stroke-width:6;stroke-miterlimit:10;}
	.st111{fill:#8C7156;stroke:#000000;stroke-width:6;stroke-linecap:round;stroke-linejoin:round;stroke-miterlimit:10;}
	.st112{fill:#F1D7C9;stroke:#000000;stroke-width:6;stroke-linecap:round;stroke-linejoin:round;stroke-miterlimit:10;}
	.st113{fill:#D1BCB2;stroke:#000000;stroke-width:6;stroke-linecap:round;stroke-linejoin:round;stroke-miterlimit:10;}
	.st114{fill:none;stroke:#FFFFFF;stroke-width:6;stroke-linecap:round;stroke-linejoin:round;stroke-miterlimit:10;}
	.st115{clip-path:url(#SVGID_48_);}
	.st116{fill:#BA3735;stroke:#000000;stroke-width:6;stroke-miterlimit:10;}
	.st117{fill:#686868;stroke:#000000;stroke-width:6;stroke-miterlimit:10;}
	.st118{fill:#BC9F93;stroke:#000000;stroke-width:6;stroke-linejoin:round;stroke-miterlimit:10;}
	.st119{fill:#FA4F45;stroke:#000000;stroke-width:6;stroke-linejoin:round;stroke-miterlimit:10;}
	.st120{fill:#CC7915;stroke:#000000;stroke-width:6;stroke-miterlimit:10;}
	.st121{fill:#999999;stroke:#000000;stroke-width:6;stroke-linejoin:round;stroke-miterlimit:10;}
	.st122{fill:#B3B3B3;stroke:#000000;stroke-width:6;stroke-linejoin:round;stroke-miterlimit:10;}
	.st123{clip-path:url(#SVGID_50_);}
	.st124{fill:#C68360;stroke:#000000;stroke-width:6;stroke-linejoin:round;stroke-miterlimit:10;}
	.st125{fill:#CA8562;stroke:#000000;stroke-width:6;stroke-linejoin:round;stroke-miterlimit:10;}
	.st126{fill:#908078;stroke:#000000;stroke-width:6;stroke-linejoin:round;stroke-miterlimit:10;}
	.st127{fill:#919191;}
	.st128{fill:none;stroke:#000000;stroke-width:20;stroke-linecap:round;stroke-miterlimit:10;}
</style>
<g>
	<g>
		<rect x="17.8" y="18" class="st0" width="1894.2" height="1454.1"/>
		<line class="st1" x1="172.6" y1="21.8" x2="172.6" y2="1474"/>
		<line class="st1" x1="332" y1="21.8" x2="332" y2="1474"/>
		<line class="st1" x1="489.6" y1="21.8" x2="489.6" y2="1474"/>
		<line class="st1" x1="649" y1="21.8" x2="649" y2="1474"/>
		<line class="st1" x1="802.8" y1="21.8" x2="802.8" y2="1474"/>
		<line class="st1" x1="962.3" y1="21.8" x2="962.3" y2="1474"/>
		<line class="st1" x1="1119.8" y1="21.8" x2="1119.8" y2="1474"/>
		<line class="st1" x1="1911" y1="177.5" x2="20" y2="177.5"/>
		<line class="st1" x1="1911" y1="336.9" x2="21" y2="336.9"/>
		<line class="st1" x1="1911" y1="494.5" x2="19" y2="494.5"/>
		<line class="st1" x1="1911" y1="653.9" x2="18" y2="653.9"/>
		<line class="st1" x1="1911" y1="807.7" x2="19" y2="807.7"/>
		<line class="st1" x1="1911" y1="967.2" x2="20" y2="967.2"/>
		<line class="st1" x1="1911" y1="1124.7" x2="15" y2="1124.7"/>
		<line class="st1" x1="1911" y1="1286.1" x2="15" y2="1286.1"/>
		<line class="st1" x1="1279.3" y1="21.8" x2="1279.3" y2="1474"/>
		<line class="st1" x1="1433" y1="21.8" x2="1433" y2="1474"/>
		<line class="st1" x1="1590.6" y1="21.8" x2="1590.6" y2="1474"/>
		<line class="st1" x1="1750.1" y1="21.8" x2="1750.1" y2="1474"/>
		<path class="st2" d="M1495.8,1255.6c0,0-41.6-117.4-60.6-157.1c-17-35.6-34.5-74.3-78.9-102.4c-19.1-12.1-43.2-22.2-74.4-29.3
			c55.5-70.7,58.1-182.9,25.8-265.2c-31.3-79.9-84.5-246.6-108.1-313.4c-44.2-125-83.4-310.7-322.5-306.1
			C657.8,86.3,615.2,279,564.5,409.7c-29.2,75.3-12.3,29.8-101.6,309.1c-39.9,124.8-4.4,202.7,47.2,250.7
			c-93.4,20.5-136.2,62-155.3,113.5c-35.1,94.4-64.5,188.1-64.5,188.1l-56.2,200.5l-26.8,0.5l1377.7-7.1L1495.8,1255.6z
			 M956.9,1022.1l-59.2,57.4l-66.1-63.2c-25.9-24.8-57.6-42.7-92.2-52c-237.6-64-67.8-512.1-67.8-512.1s157.2-90.1,438.9,8.2
			c0,0,172.7,446.2-51.3,504.7C1020.9,975.2,985.5,994.4,956.9,1022.1z"/>
	</g>
	<rect x="18" y="177" class="st3" width="155" height="160"/>
	<rect x="173" y="337" class="st3" width="159" height="157"/>
	<rect x="173" y="808" class="st3" width="159" height="159"/>
	<rect x="1751" y="1125" class="st3" width="161" height="160"/>
	<rect x="1591" y="654" class="st3" width="159" height="153"/>
	<rect x="489" y="177" class="st3" width="160" height="159"/>
	<rect x="1433" y="337" class="st3" width="158" height="157"/>
	<rect x="1280" y="18" class="st3" width="153" height="159"/>
	<rect x="1750" y="338" class="st3" width="162" height="156"/>
	<rect x="18" y="1124" class="st3" width="155" height="161"/>
</g>
<g>
	<g>
		<polygon class="st12" points="1114.4,255.8 1338.8,727.4 1113.9,1127 832.7,1258 628,866.6 680.4,464.5 891.7,273.8 		"/>
		<rect x="794.9" y="870.9" class="st13" width="318.7" height="440.6"/>
		<g>
			<path class="st14" d="M676.8,501c0,0-35.4-34.3-6.6-64.2c0,0-44.6-62.7-5.2-101.5c0,0-1.3-68.7,64.3-56.7
				c0,0,13.1-73.1,73.4-52.2c0,0,47.9-53,94.4,0c0,0,53.8-70.1,116.7,1.5c0,0,46.6-54.5,94.4,0c0,0,73.4-37.3,83.9,43.3
				c0,0,57.2,51.6,20.5,130.3c0,0,83.1-9.1,32,33.9c0,0,36.7,35.8,2.6,70.1l-43.3,73.1l-506.2-17.9L676.8,501z"/>
			<g>
				<path class="st13" d="M1202.5,511.5c0,0,29.9-25.9,67.8-8.5c27.1,12.4,30.7,41.5,18.4,74.3c0,0,31.4,92.4-42.3,93.7
					c-70.7,1.3-57.5-42-57.5-42"/>
				<path class="st15" d="M1220.4,531c0,0,54.6-18.4,46.4,36.2"/>
				<line class="st15" x1="1245" y1="558.3" x2="1225.8" y2="602"/>
			</g>
			<g>
				<path class="st13" d="M716.5,519.7c0,0-29.9-25.9-67.8-8.5c-27.1,12.4-30.7,41.5-18.4,74.3c0,0-31.4,92.4,42.3,93.7
					c70.7,1.3,57.5-42,57.5-42"/>
				<path class="st15" d="M698.6,539.2c0,0-54.6-18.4-46.4,36.2"/>
			</g>
			<path class="st16" d="M1194.8,538.9c-9.9-13.2-23.6-17.8-17.5-62.2c4.2-30.3,22.5-38.1,22.5-38.1s-37.1,8.4-59.7-9.9
				c-18.4-14.9-7.9-43.7-7.9-43.7s-69.1,3.5-49.9-59c0,0-31.4,42.3-116.2,42.3c-87.4,0-126.7-42.3-126.7-42.3
				c10.5,55.5-63,46.7-63,46.7s21.4,27.5-2.6,51.6c-23.6,23.6-51.9,14.3-51.9,14.3s28.6,22.7,28.6,51.3c0,24.5-18.4,38.3-27.3,49.1
				c-20.5,24.6-23.1,54.7-23.4,80.2c-0.8,69.2,43,124.1,43,124.1l14.7,124.8c0,0-3.4,56.1,86.9,74.8c7.9,14.2,29.5,32.5,88,32.5
				h61.2c59.9,0,81.1-19.2,88.6-33.6c85.5-19.6,82.2-73.8,82.2-73.8l14.7-124.8c0,0,39.7-49.7,42.8-114.2
				C1223.3,600.9,1217.1,568.6,1194.8,538.9z"/>
			<path class="st17" d="M1179.1,743.3l-14.7,124.8c0,0,3.3,54.2-82.2,73.8c-7.5,14.3-28.7,33.6-88.6,33.6h-61.2
				c-58.5,0-80.1-18.3-88-32.5c-90.3-18.7-86.9-74.8-86.9-74.8l-14.7-124.8c0,0,42.7,46.3,88.8,45c47.2-1.3,65.3-10.8,116.7-10.3
				c53.7,0.5,89.5,8.6,118.5,10.9C1097.9,791.4,1148.9,787.4,1179.1,743.3z"/>
			<path class="st16" d="M860,899.1c23.5,13.5,56.4-4.4,101.4-4.4c43.3,0,78.2,20.2,100.5,8.3c10.2-5.4,10.9-21.9,10.9-44.6
				c0-10.5-4.9-33.6-12.7-40.7c-19.1-17.3-48.5-12.2-100.1-12.2c-53.3,0-71.7-4.4-96.6,8.3c-9.5,4.8-18.4,20.1-18.4,45.9
				C845.1,883.3,850.3,893.5,860,899.1z"/>
			<path class="st15" d="M932,597.7c0,0-59,117.1-44.5,150.5c9.4,21.6,42,4.5,42,4.5s24.5,21.2,49,0c0,0,23.4,16,40,0"/>
			<path class="st15" d="M875.1,833.8c45.8,45.8,120,45.8,165.9,0"/>
			<path class="st15" d="M946.4,955c0-13.9,11.2-25.1,25.1-25.1"/>
			<circle class="st18" cx="1091.6" cy="813.4" r="5.2"/>
			<circle class="st18" cx="1108.7" cy="806.4" r="5.2"/>
			<circle class="st18" cx="1107.4" cy="826.1" r="5.2"/>
			<circle class="st18" cx="1122.5" cy="817.7" r="5.2"/>
			<circle class="st18" cx="1121.8" cy="837.6" r="5.2"/>
			<circle class="st18" cx="825.4" cy="885.1" r="5.2"/>
			<circle class="st18" cx="797.3" cy="887.7" r="5.2"/>
			<circle class="st18" cx="834.1" cy="902.5" r="5.2"/>
			<circle class="st18" cx="813.1" cy="896.9" r="5.2"/>
			<circle class="st18" cx="797.8" cy="905.8" r="5.2"/>
			<circle class="st18" cx="811.2" cy="870.5" r="5.2"/>
			<circle class="st18" cx="821.8" cy="912.6" r="5.2"/>
			<circle class="st18" cx="1092.7" cy="836.7" r="5.2"/>
			<circle class="st18" cx="1129.1" cy="803.4" r="5.2"/>
			<path class="st15" d="M806.9,458c0,0,24.3,2,59.7,19.1c29.9,14.4,52.1,34.8,52.1,34.8"/>
			<path class="st15" d="M983.9,516.2c0,0,15.5-18.8,49.8-38.1c28.9-16.3,58.4-22.9,58.4-22.9"/>
		</g>
		<g>
			<path class="st19" d="M928.9,538.5c0,0,21.2-13,48.3,0l3.4,20.4c0,0-19.9-10.9-58.9-0.3L928.9,538.5z"/>
			<path class="st19" d="M706.1,537.3c0,0,133.2-25.9,222.9,1.2c0,0-3.5,126.2-96.7,127.3c-56.8,0.7-97.8-35.8-121.2-64.5
				C696.2,583.2,694.4,557.7,706.1,537.3L706.1,537.3z"/>
			<path class="st19" d="M1200.1,537.3c0,0-133.2-25.9-222.9,1.2c0,0,3.5,126.2,96.7,127.3c56.8,0.7,97.8-35.8,121.2-64.5
				C1210,583.2,1211.9,557.7,1200.1,537.3L1200.1,537.3z"/>
			<g>
				<defs>
					<path id="SVGID_29_" d="M913.9,551.9c0,0-6,108-87,103s-119.9-75-119.9-75l3.9-29C710.9,550.9,851.9,523.9,913.9,551.9z"/>
				</defs>
				<clipPath id="SVGID_2_">
					<use xlink:href="#SVGID_29_"  style="overflow:visible;"/>
				</clipPath>
				<g style="opacity:0.75;clip-path:url(#SVGID_2_);">
					<g>
						<path class="st28" d="M966.7,529.3c9.9-0.3,13.4,2.3,7.1,8.7c-6.4,6.5-15.1,10-24,10.5c-8.8,0.5-12.2-2.4-7-9.2
							C948,532.7,956.9,529.6,966.7,529.3z M964.7,538.5c3.7-4.1,3.6-6.1-1-5.9c-4.5,0.2-8.5,2.3-11.9,6.5c-3.5,4.2-3.2,6.2,1,6
							C957.1,544.9,960.9,542.6,964.7,538.5z"/>
						<path class="st28" d="M940.6,533.1c-3.3,0-5,0-8.3-0.1c-3.4,5.1-5.1,7.7-8.6,12.8c3.3,0,4.9,0,8.2-0.1c-1,1.3-1.4,2-2.4,3.3
							c-9.8,0.2-14.7,0.2-24.4-0.1c0.8-1.4,1.2-2.1,1.9-3.4c3.3,0.1,4.9,0.1,8.2,0.2c4-6.5,6-9.8,10-16.3c7.1,0.3,10.6,0.4,17.7,0.4
							C942,531.1,941.6,531.8,940.6,533.1z"/>
						<path class="st28" d="M895.4,527.1c9.7,0.9,14.3,4.6,10.5,11.6c-3.8,7.2-11.3,10.3-20,9.8c-8.6-0.5-13.1-4.5-10.4-12.1
							C878.2,528.9,885.8,526.2,895.4,527.1z M897,538.2c2.2-4.5,1.2-7-3.3-7.4c-4.4-0.4-7.5,1.8-9.4,6.4c-1.9,4.7-0.9,7.2,3.3,7.5
							C891.8,545,894.8,542.7,897,538.2z"/>
						<path class="st28" d="M860.4,522.8c9.5,1.5,14.6,5.8,12.1,13.3c-2.6,7.6-9.4,10.6-18,9.6c-8.5-1-13.4-5.6-11.9-13.7
							C844,523.9,850.9,521.3,860.4,522.8z M863.7,535c1.4-4.8,0.1-7.6-4.3-8.2c-4.4-0.6-7,1.6-8.2,6.5c-1.1,5,0.2,7.8,4.3,8.3
							C859.6,542.1,862.3,539.8,863.7,535z"/>
						<path class="st28" d="M837.1,523.2c-3.2-0.6-4.8-0.9-7.9-1.6c-0.7,6.2-1.1,9.2-1.9,15.4c3.2,0.6,4.7,0.9,7.9,1.4
							c-0.2,1.6-0.4,2.4-0.6,4c-9.5-1.5-14.2-2.4-23.6-4.4c0.1-1.7,0.1-2.5,0.2-4.2c3.1,0.7,4.7,1,7.8,1.6c0.7-7.9,1-11.9,1.6-19.8
							c6.8,1.5,10.2,2.2,17,3.6C837.5,520.8,837.4,521.6,837.1,523.2z"/>
						<path class="st28" d="M792.1,508c9.2,2.6,15.2,8.1,14.9,16.7c-0.3,8.7-5.9,11.6-14.2,9.5c-8.3-2-14-7.9-14.7-17.2
							C777.3,507.9,782.9,505.4,792.1,508z M798.5,522.6c0-5.5-2-8.9-6.3-10.1c-4.2-1.2-6.1,1.2-5.8,6.9c0.3,5.7,2.3,9.2,6.2,10.2
							C796.6,530.6,798.5,528.2,798.5,522.6z"/>
						<path class="st28" d="M759,497.5c9,3.1,15.3,9.4,16.1,18.6c0.8,9.4-4.2,12.2-12.4,9.7c-8.1-2.5-14.2-9-15.9-19.1
							C745.1,496.9,750,494.4,759,497.5z M766.8,513.6c-0.7-5.9-3-9.6-7.1-11.1c-4.1-1.4-5.6,1-4.7,7.1c0.9,6.2,3.2,9.9,7.1,11.2
							C766,522.1,767.5,519.6,766.8,513.6z"/>
						<path class="st28" d="M726.7,485.1c8.7,3.6,15.5,11.1,17.3,20.6c1.8,10.1-2.6,13-10.6,9.9c-8.9-3.5-14.8-11.9-17-21
							C713.7,484,718,481.5,726.7,485.1z M735.8,502.6c-1.3-6.4-3.9-10.4-7.9-12.1c-4-1.7-5.1,0.9-3.6,7.5
							c1.6,6.7,4.1,10.8,7.9,12.2C736,511.7,737.1,509.1,735.8,502.6z"/>
						<path class="st28" d="M707.6,481.8c-2.9-1.3-4.3-2-7.2-3.4c2.3,8.3,3.5,12.4,5.8,20.7c2.9,1.3,4.3,2,7.2,3.2
							c0.6,2.1,0.8,3.2,1.4,5.3c-8.7-3.7-13-5.7-21.5-9.9c-0.7-2.2-1-3.4-1.7-5.6c2.8,1.4,4.3,2.1,7.1,3.5
							c-3.2-10.6-4.7-16-7.9-26.6c6.1,3.1,9.2,4.6,15.4,7.5C706.8,478.6,707.1,479.7,707.6,481.8z"/>
						<path class="st28" d="M664.9,454.5c9.3,5.4,15.9,14.5,19.1,24.7c3.7,11.7,0.3,14.7-7.1,10.7c-9.4-5.2-15.3-15.2-18.9-25.1
							C653.6,452.4,656.9,449.8,664.9,454.5z M676.4,475.1c-2.5-7.4-5.5-12.2-9.3-14.4c-3.8-2.1-4.2,0.8-1.5,8.4
							c2.7,7.7,5.7,12.6,9.3,14.5C678.5,485.6,678.9,482.6,676.4,475.1z"/>
						<path class="st28" d="M938.8,561.1c8.1-0.7,10.5,1.7,4.2,8.1c-6.4,6.5-14,10.2-21.1,11.1c-7,0.9-9.3-1.7-4.1-8.5
							C922.9,565.2,930.7,561.8,938.8,561.1z M935.6,570.1c3.7-4.1,4-6,0.2-5.6c-3.7,0.3-7.3,2.6-10.7,6.7c-3.5,4.2-3.6,6.1-0.2,5.7
							C928.3,576.5,931.8,574.2,935.6,570.1z"/>
						<path class="st28" d="M909.2,562.7c8.1-0.2,11.1,2.7,6.1,9.3c-5.1,6.8-12.1,10.4-19.2,10.9c-7,0.5-9.9-2.6-6-9.7
							C894,566.2,901.1,562.9,909.2,562.7z M907.9,572.5c2.9-4.3,2.7-6.4-1-6.3c-3.7,0.1-6.8,2.4-9.5,6.7c-2.7,4.4-2.4,6.6,1,6.4
							C901.8,579.2,904.9,576.8,907.9,572.5z"/>
						<path class="st28" d="M879.7,562.5c8.1,0.3,11.6,3.6,7.8,10.7c-3.8,7.2-10.2,10.7-17.3,10.7c-7,0.1-10.4-3.5-7.7-11.1
							C865.2,565.4,871.7,562.2,879.7,562.5z M880.2,573.3c2.2-4.5,1.6-6.9-2.2-7c-3.7-0.1-6.4,2.2-8.3,6.8
							c-1.9,4.7-1.2,7.1,2.1,7.1C875.4,580.2,878,577.8,880.2,573.3z"/>
						<path class="st28" d="M859.3,565.5c-2.7-0.2-4-0.3-6.7-0.5c-1.6,5.8-2.4,8.6-4,14.4c2.6,0.1,3.9,0.2,6.6,0.3
							c-0.5,1.5-0.7,2.2-1.2,3.7c-7.8-0.2-11.8-0.4-19.6-1c0.3-1.6,0.5-2.3,0.8-3.9c2.6,0.2,3.9,0.3,6.6,0.5
							c1.7-7.4,2.6-11.1,4.3-18.5c5.8,0.6,8.6,0.9,14.4,1.3C860,563.3,859.8,564.1,859.3,565.5z"/>
						<path class="st28" d="M821.7,556.9c7.9,1.2,12.4,5.7,11,13.7c-1.4,8.1-6.6,11.5-13.6,10.7c-6.9-0.8-11.3-5.4-10.9-14.1
							C808.6,558.7,813.8,555.7,821.7,556.9z M825.5,569.8c0.7-5.1-0.6-8-4.3-8.6c-3.6-0.5-5.5,1.9-5.9,7.2c-0.4,5.3,1,8.3,4.3,8.7
							C822.9,577.4,824.8,575,825.5,569.8z"/>
						<path class="st28" d="M802.9,558.2c-2.6-0.5-3.9-0.8-6.5-1.3c0.1,6.6,0.1,9.9,0.2,16.6c2.6,0.5,3.9,0.7,6.4,1.1
							c0,1.7,0,2.5-0.1,4.2c-7.7-1.2-11.5-1.8-19.2-3.4c-0.1-1.8-0.2-2.7-0.3-4.5c2.6,0.5,3.8,0.8,6.4,1.3
							c-0.4-8.5-0.6-12.8-0.9-21.3c5.6,1.3,8.4,1.9,14,3C803,555.7,803,556.5,802.9,558.2z"/>
						<path class="st28" d="M765.2,544.4c7.6,2.2,13,7.8,13.8,17.1c0.8,9.4-3.3,12.8-10.1,11.2c-6.7-1.6-12-7.4-13.7-17.5
							C753.5,545.3,757.6,542.2,765.2,544.4z M772.1,559.8c-0.7-5.9-2.7-9.4-6.2-10.4c-3.5-1-4.7,1.7-3.7,7.8
							c0.9,6.2,2.9,9.7,6.2,10.5C771.6,568.5,772.7,565.8,772.1,559.8z"/>
						<path class="st28" d="M748.3,544.3c-2.5-0.8-3.8-1.2-6.3-2.1c1.6,7.7,2.4,11.5,4.1,19.2c2.5,0.8,3.7,1.1,6.2,1.9
							c0.4,2,0.6,2.9,0.9,4.9c-7.5-2.1-11.2-3.2-18.6-5.6c-0.5-2.1-0.8-3.1-1.3-5.2c2.5,0.8,3.7,1.2,6.2,2
							c-2.3-9.9-3.4-14.8-5.7-24.7c5.4,2,8.1,2.9,13.5,4.7C747.7,541.3,747.9,542.3,748.3,544.3z"/>
						<path class="st28" d="M711,525.2c7.3,3.1,13.4,10,16.2,20.8c2.8,10.9-0.2,14.5-6.7,12.1c-6.5-2.4-12.4-9.5-16-21.2
							C700.8,525.4,703.8,522.1,711,525.2z M720.4,543.4c-1.9-6.9-4.4-11.1-7.8-12.5c-3.3-1.4-3.8,1.6-1.7,8.7
							c2.1,7.2,4.7,11.4,7.8,12.6C721.9,553.4,722.4,550.4,720.4,543.4z"/>
						<path class="st28" d="M695.9,523.8c-2.4-1.1-3.6-1.7-6-2.8c3,8.9,4.5,13.4,7.5,22.3c2.4,1.1,3.6,1.6,6,2.6
							c0.7,2.3,1.1,3.4,1.8,5.7c-7.2-3-10.7-4.6-17.7-7.9c-0.9-2.4-1.3-3.6-2.2-6c2.3,1.1,3.5,1.7,5.9,2.8
							c-3.3-9.6-6.6-19.1-9.9-28.7c5.1,2.6,7.6,3.9,12.8,6.3C694.8,520.3,695.1,521.5,695.9,523.8z"/>
						<path class="st28" d="M915.6,595c-2.1,0.4-3.2,0.6-5.3,1c-4.4,4.9-6.6,7.3-11,12.2c2-0.5,3-0.7,5.1-1.2
							c-1.2,1.3-1.8,1.9-3,3.1c-6,1.6-8.9,2.3-14.9,3.6c1-1.3,1.5-1.9,2.5-3.2c2-0.4,3-0.6,5.1-1.1c5.2-6.2,7.8-9.3,13-15.5
							c4.6-0.7,6.9-1.2,11.6-2C917.4,593.1,916.8,593.7,915.6,595z"/>
						<path class="st28" d="M887.5,596.2c6.4-0.7,8.3,1.9,3.3,8.5c-5.1,6.8-10.9,10.7-16.3,11.7c-5.4,1-7.1-1.7-3.2-8.9
							C875,600.5,881.1,596.9,887.5,596.2z M885,605.7c2.9-4.3,3.1-6.3,0.2-5.9c-2.9,0.3-5.7,2.7-8.3,7.1c-2.7,4.4-2.8,6.4-0.2,6
							C879.3,612.4,882,610,885,605.7z"/>
						<path class="st28" d="M870.2,601.4c-2.1,0.2-3.2,0.2-5.4,0.4c-2.5,5.4-3.8,8.1-6.3,13.5c2-0.2,3.1-0.4,5.1-0.6
							c-0.7,1.4-1.1,2.1-1.8,3.5c-6.1,0.9-9.1,1.2-15.2,1.8c0.5-1.5,0.8-2.2,1.3-3.6c2.1-0.2,3.1-0.3,5.1-0.5
							c2.9-6.9,4.3-10.4,7.1-17.3c4.6-0.2,7-0.3,11.6-0.6C871.3,599.3,870.9,600,870.2,601.4z"/>
						<path class="st28" d="M840.7,598.4c6.4,0.1,9.4,3.5,6.9,11c-2.6,7.6-7.3,11.5-12.8,11.8c-5.4,0.3-8.3-3.3-6.8-11.4
							C829.4,601.9,834.3,598.3,840.7,598.4z M841.8,609.7c1.4-4.8,0.8-7.3-2.2-7.3c-2.9,0-4.9,2.5-6,7.4c-1.1,5-0.5,7.5,2.2,7.3
							C838.5,617.1,840.4,614.6,841.8,609.7z"/>
						<path class="st28" d="M824.8,602.3c-2.1-0.1-3.2-0.1-5.3-0.3c-0.7,6.2-1.1,9.2-1.9,15.4c2.1,0,3.1,0,5.1,0
							c-0.2,1.6-0.4,2.4-0.6,4c-6.1,0.1-9.1,0.1-15.2,0c0.1-1.7,0.1-2.5,0.2-4.2c2.1,0.1,3.1,0.1,5.1,0.2c0.7-7.9,1-11.9,1.6-19.8
							c4.6,0.4,6.9,0.5,11.5,0.8C825.2,599.9,825.1,600.7,824.8,602.3z"/>
						<path class="st28" d="M794.3,595c6.3,0.8,10.4,5.3,10.1,13.9c-0.3,8.7-4,12.7-9.4,12.3c-5.4-0.3-9.3-4.9-10-14.3
							C784.3,597.9,788.1,594.2,794.3,595z M798.7,608.5c0-5.5-1.4-8.5-4.3-8.9c-2.9-0.4-4.1,2.4-3.8,8.1c0.3,5.7,1.7,8.8,4.3,9
							C797.5,616.9,798.7,614.1,798.7,608.5z"/>
						<path class="st28" d="M779.9,597.8c-2.1-0.3-3.1-0.5-5.2-0.9c0.9,7.1,1.3,10.7,2.2,17.8c2,0.3,3.1,0.4,5.1,0.6
							c0.2,1.8,0.3,2.7,0.4,4.6c-6-0.6-9.1-1-15.1-1.8c-0.3-1.9-0.5-2.9-0.8-4.8c2,0.3,3,0.5,5.1,0.8c-1.4-9.2-2-13.7-3.4-22.9
							c4.5,0.9,6.8,1.3,11.3,2.1C779.6,595,779.7,595.9,779.9,597.8z"/>
						<path class="st28" d="M757.7,593.5c-2.1-0.5-3.1-0.7-5.2-1.2c1.6,7.7,2.4,11.5,4.1,19.2c2,0.4,3,0.6,5,0.9
							c0.4,2,0.6,2.9,0.9,4.9c-6-1-9-1.5-15-2.8c-0.5-2.1-0.8-3.1-1.3-5.2c2,0.4,3,0.7,5,1.1c-2.3-9.9-3.4-14.8-5.7-24.7
							c4.4,1.2,6.7,1.8,11.1,2.8C757.1,590.5,757.3,591.5,757.7,593.5z"/>
						<path class="st28" d="M726.6,579.6c6.1,2,11.4,8.2,14.2,19c2.8,10.9,0.6,15.2-4.7,13.9c-5.3-1.3-10.4-7.6-14.1-19.3
							C718.4,581.7,720.6,577.7,726.6,579.6z M735.3,597.1c-1.9-6.9-4.2-10.8-7-11.7c-2.8-0.9-3,2.4-0.9,9.5
							c2.1,7.2,4.4,11.1,7,11.8C737,607.3,737.2,604.1,735.3,597.1z"/>
						<path class="st28" d="M704.8,571.8c5.9,2.3,11.6,9.2,15.3,20.8c3.7,11.8,2,16.2-3.3,14.6c-5.2-1.6-10.7-8.6-15.2-21.1
							C697.2,573.6,698.9,569.4,704.8,571.8z M714.7,590.7c-2.5-7.4-5-11.7-7.7-12.8c-2.7-1-2.6,2.4,0,10c2.7,7.7,5.2,12.1,7.7,12.9
							C717.2,601.7,717.2,598.3,714.7,590.7z"/>
						<path class="st28" d="M885.5,626.4c-1.5,0.6-2.3,0.8-3.8,1.4c-4.4,4.9-6.6,7.3-11,12.2c1.4-0.6,2.1-0.9,3.5-1.6
							c-1.2,1.3-1.8,1.9-3,3.1c-4,2-6,3-10.1,4.8c1-1.3,1.5-1.9,2.5-3.2c1.4-0.6,2.1-0.9,3.5-1.5c5.2-6.2,7.8-9.3,13-15.5
							c3.4-1,5.1-1.6,8.4-2.7C887.3,624.5,886.7,625.1,885.5,626.4z"/>
						<path class="st28" d="M865.8,629.7c4.7-1.2,5.5,1.1,0.5,7.8c-5.1,6.8-9.8,11-13.5,12.4c-3.7,1.5-4.4-0.9-0.4-8
							C856.1,634.9,861.1,630.9,865.8,629.7z M862.2,638.8c2.9-4.3,3.5-6.2,1.3-5.6c-2.1,0.6-4.5,3.1-7.2,7.4
							c-2.7,4.4-3.1,6.3-1.3,5.7C856.8,645.7,859.2,643.2,862.2,638.8z"/>
						<path class="st28" d="M852.5,636.1c-1.6,0.4-2.4,0.5-3.9,0.9c-2.5,5.4-3.8,8.1-6.3,13.5c1.5-0.4,2.2-0.7,3.6-1.1
							c-0.7,1.4-1.1,2.1-1.8,3.5c-4.2,1.5-6.3,2.2-10.6,3.5c0.5-1.5,0.8-2.2,1.3-3.6c1.5-0.4,2.2-0.6,3.7-1
							c2.9-6.9,4.3-10.4,7.1-17.3c3.5-0.6,5.2-1,8.6-1.7C853.6,634.1,853.2,634.7,852.5,636.1z"/>
						<path class="st28" d="M830.9,636.3c4.8-0.6,6.8,2.4,4.2,9.9c-2.6,7.6-6.3,11.9-10.2,12.9c-3.9,1-5.7-2.1-4.2-10.2
							C822.2,640.9,826.1,636.9,830.9,636.3z M830.9,647.1c1.4-4.8,1.1-7.1-1.1-6.8c-2.2,0.3-3.8,3-4.9,7.9c-1.1,5-0.8,7.3,1.1,6.9
							C827.9,654.6,829.5,651.9,830.9,647.1z"/>
						<path class="st28" d="M818.7,641.8c-1.6,0.2-2.4,0.3-4,0.4c-0.7,6.2-1.1,9.2-1.9,15.4c1.5-0.3,2.2-0.4,3.7-0.7
							c-0.2,1.6-0.4,2.4-0.6,4c-4.4,1-6.6,1.4-11,2.2c0.1-1.7,0.1-2.5,0.2-4.2c1.5-0.2,2.3-0.3,3.8-0.6c0.7-7.9,1-11.9,1.6-19.8
							c3.5-0.2,5.3-0.3,8.8-0.6C819,639.5,818.9,640.3,818.7,641.8z"/>
						<path class="st28" d="M795.5,638.6c4.9,0,7.9,3.9,7.7,12.5c-0.3,8.7-3,13.2-7,13.7c-4,0.5-7-3.5-7.7-12.8
							C787.8,642.9,790.6,638.6,795.5,638.6z M798.9,651.5c0-5.5-1-8.3-3.3-8.3c-2.2,0.1-3.1,3-2.8,8.7c0.3,5.7,1.3,8.6,3.3,8.3
							C798,660,798.9,657,798.9,651.5z"/>
						<path class="st28" d="M777.7,638.1c4.9,0.3,8.5,4.7,9.3,14c0.8,9.4-1.4,14-5.5,14.3c-4,0.3-7.5-4.2-9.3-14.2
							C770.5,642.3,772.9,637.9,777.7,638.1z M782.7,652.2c-0.7-5.9-2.1-9-4.3-9.1c-2.2-0.1-2.8,3-1.9,9.1c0.9,6.2,2.3,9.3,4.3,9.2
							C782.8,661.3,783.3,658.2,782.7,652.2z"/>
						<path class="st28" d="M767.1,642.7c-1.6-0.1-2.4-0.2-4.1-0.3c1.6,7.7,2.4,11.5,4.1,19.2c1.5,0,2.3,0,3.9,0
							c0.4,2,0.6,2.9,0.9,4.9c-4.5,0.2-6.8,0.2-11.4,0.1c-0.5-2.1-0.8-3.1-1.3-5.2c1.5,0.1,2.3,0.1,3.9,0.1
							c-2.3-9.9-3.4-14.8-5.7-24.7c3.5,0.4,5.3,0.6,8.8,0.9C766.6,639.7,766.8,640.7,767.1,642.7z"/>
						<path class="st28" d="M742.3,634c4.8,0.9,9.3,6.4,12.1,17.1c2.8,10.9,1.4,15.9-2.7,15.7c-4.1-0.2-8.4-5.7-12.1-17.4
							C736,638,737.5,633.2,742.3,634z M750.1,650.8c-1.9-6.9-3.9-10.6-6.1-11c-2.2-0.3-2.1,3.2,0,10.2c2.1,7.2,4.2,10.9,6.1,11
							C752.1,661.2,752,657.7,750.1,650.8z"/>
						<path class="st28" d="M732.8,638.1c-1.6-0.3-2.4-0.5-4-0.8c3,8.9,4.5,13.4,7.5,22.3c1.5,0.2,2.3,0.3,3.9,0.5
							c0.7,2.3,1.1,3.4,1.8,5.7c-4.6-0.4-6.9-0.6-11.5-1.2c-0.9-2.4-1.3-3.6-2.2-6c1.5,0.2,2.3,0.4,3.9,0.6
							c-3.3-9.6-6.6-19.1-9.9-28.7c3.5,0.9,5.2,1.3,8.7,2C731.7,634.6,732.1,635.8,732.8,638.1z"/>
					</g>
				</g>
			</g>
			<path class="st15" d="M915.4,550c0,0-6,108-87,103s-119.9-75-119.9-75l3.9-29C712.4,549,853.4,522,915.4,550z"/>
		</g>
		<g>
			<g>
				<defs>
					<path id="SVGID_31_" d="M1561.8,1255.6c0,0-41.6-117.4-60.6-157.1c-17-35.6-34.5-74.3-78.9-102.4
						c-19.1-12.1-43.2-22.2-74.4-29.3c55.5-70.7,58.1-182.9,25.8-265.2c-31.3-79.9-84.5-246.6-108.1-313.4
						c-44.2-125-83.4-310.7-322.5-306.1c-219.3,4.2-261.9,196.9-312.6,327.6C601.3,485,618.2,439.5,529,718.8
						c-39.9,124.8-4.4,202.7,47.2,250.7c-93.4,20.5-136.2,62-155.3,113.5c-35.1,94.4-64.5,188.1-64.5,188.1l-83,296l1377.7-7.1
						L1561.8,1255.6z M1022.9,1022.1l-59.2,57.4l-66.1-63.2c-25.9-24.8-57.6-42.7-92.2-52c-237.6-64-67.8-512.1-67.8-512.1
						s157.2-90.1,438.9,8.2c0,0,172.7,446.2-51.3,504.7C1086.9,975.2,1051.5,994.4,1022.9,1022.1z"/>
				</defs>
				<clipPath id="SVGID_4_">
					<use xlink:href="#SVGID_31_"  style="overflow:visible;"/>
				</clipPath>
				<g class="st47">
					<g>
						<defs>
							<rect id="SVGID_33_" x="268.4" y="77" width="1387.7" height="1495"/>
						</defs>
						<clipPath id="SVGID_6_">
							<use xlink:href="#SVGID_33_"  style="overflow:visible;"/>
						</clipPath>
						<g class="st49">
							
								<image style="overflow:visible;" width="2892" height="3116" xlink:href="69ED68744DD2D1F3.jpg"  transform="matrix(0.48 0 0 0.48 268.16 76.56)">
							</image>
						</g>
					</g>
				</g>
			</g>
			<path class="st15" d="M1561.8,1255.6c0,0-41.6-117.4-60.6-157.1c-17-35.6-34.5-74.3-78.9-102.4c-19.1-12.1-43.2-22.2-74.4-29.3
				c55.5-70.7,58.1-182.9,25.8-265.2c-31.3-79.9-84.5-246.6-108.1-313.4c-44.2-125-83.4-310.7-322.5-306.1
				c-219.3,4.2-261.9,196.9-312.6,327.6C601.3,485,618.2,439.5,529,718.8c-39.9,124.8-4.4,202.7,47.2,250.7
				c-93.4,20.5-136.2,62-155.3,113.5c-35.1,94.4-64.5,188.1-64.5,188.1l-83,296l1377.7-7.1L1561.8,1255.6z M1022.9,1022.1
				l-59.2,57.4l-66.1-63.2c-25.9-24.8-57.6-42.7-92.2-52c-237.6-64-67.8-512.1-67.8-512.1s157.2-90.1,438.9,8.2
				c0,0,172.7,446.2-51.3,504.7C1086.9,975.2,1051.5,994.4,1022.9,1022.1z"/>
		</g>
		<path class="st15" d="M1348,967c-71,78-168,143-389,141S574,967,574,967"/>
		<path class="st2" d="M1177,460c0,0,336,293-31.1,500.1C1145.9,960.1,1340,922,1177,460z"/>
		<path class="st2" d="M738,452c0,0-21.9,10.3-46,39c-84.8,101.2-237.2,349.9,86,466C778,957,586,872,738,452z"/>
		<path class="st15" d="M1195,928.8c0,0,189.2-109.3,92-329.8c-82-186-231-217-334.3-218.1C791.4,379.3,689,458,623.4,591.3
			c-62,126-98.1,275.1,154.6,365.7"/>
		<path class="st15" d="M642,974c206,3,322,106,322,106s182-133,353-128"/>
		<path class="st2" d="M719,704c0,0-30-149,86-160s249.2-18.6,326,8c42.1,14.6,89.2,50.5,70,158l33.1-36.8L1177,460
			c0,0-146.9-60.6-289-41.3S738,452,738,452l-42,155.3l-17.9,96L712,723L719,704z"/>
		<path class="st2" d="M905.3,624.1c0,0,20.2-37.2,23.4-63.6c0,0,14.7-14.7,51.9-1.6c0,0-0.7,38.1,20.3,65.1c0,0-21-13-50-13
			C921,611,905.3,624.1,905.3,624.1z"/>
		<path class="st2" d="M743,743c0,0,48,50,89,45c0,0-64,63,12,155c0,0-89-24-113-68S743,743,743,743z"/>
		<path class="st2" d="M1181.8,743c0,0-48,50-89,45c0,0,64,63-12,155c0,0,89-24,113-68S1181.8,743,1181.8,743z"/>
		<path class="st2" d="M949,972c0,0-36-47,82-65c0,0-76.3-21.7-117.1-1.4C873,925.9,874.6,975.7,949,972z"/>
		<g>
			<defs>
				<path id="SVGID_35_" d="M990.5,551.9c0,0,6,108,87,103c23.2-1.4,42.9-8.2,59.3-17.1c40.8-22.2,60.5-57.8,60.5-57.8l-3.9-29
					c0,0-66.3-12.7-128-11.6C1037.3,539.7,1010,543.1,990.5,551.9z"/>
			</defs>
			<clipPath id="SVGID_8_">
				<use xlink:href="#SVGID_35_"  style="overflow:visible;"/>
			</clipPath>
			<g style="opacity:0.75;clip-path:url(#SVGID_8_);">
				<g>
					<path class="st28" d="M953.8,479.2c3.7,11.7,0.3,14.7-7,10.7c-9.4-5.2-15.3-15.2-18.9-25.2c-4.5-12.3-1.2-15,6.9-10.2
						C944,459.9,950.6,469,953.8,479.2z M944.7,483.6c3.6,1.9,4-1,1.5-8.5c-2.5-7.4-5.6-12.3-9.3-14.4c-3.8-2.2-4.2,0.8-1.5,8.4
						C938.1,476.8,941.1,481.7,944.7,483.6z"/>
					<path class="st28" d="M954.7,465.9c6.1,3.2,9.1,4.7,15.3,7.7c2.9,10.4,4.3,15.6,7.2,26c2.9,1.3,4.3,2,7.2,3.2
						c0.6,2.1,0.8,3.2,1.4,5.3c-8.7-3.7-13-5.7-21.6-9.8c-0.7-2.2-1-3.4-1.7-5.6c2.8,1.4,4.3,2.1,7.1,3.4c-2.5-8.4-3.7-12.6-6.2-21
						c-2.9-1.4-4.3-2.1-7.1-3.6C955.7,469.3,955.3,468.2,954.7,465.9z"/>
					<path class="st28" d="M1013.7,505.7c1.9,10.1-2.6,13-10.5,9.9c-9-3.5-14.8-11.9-17.1-21c-2.6-10.6,1.7-13.1,10.4-9.4
						C1005.2,488.8,1011.9,495.7,1013.7,505.7z M1002,510.2c3.8,1.5,4.9-1.1,3.6-7.6c-1.3-6.4-3.9-10.5-7.9-12.1
						c-4.1-1.7-5.1,0.9-3.6,7.5C995.7,504.7,998.2,508.7,1002,510.2z"/>
					<path class="st28" d="M1044.9,516.2c0.8,9.4-4.2,12.2-12.3,9.7c-8.2-2.6-14.2-9-16-19.1c-1.7-9.9,3.3-12.3,12.2-9.2
						C1037.7,500.7,1044.1,506.9,1044.9,516.2z M1031.9,520.8c3.9,1.2,5.4-1.2,4.7-7.2c-0.7-5.9-3-9.7-7.1-11.1
						c-4.2-1.4-5.6,1-4.7,7.1C1025.7,515.8,1028,519.6,1031.9,520.8z"/>
					<path class="st28" d="M1050.4,505.1c6.6,2,9.9,3,16.6,4.8c0.1,8.3,0.1,12.5,0.2,20.8c3.1,0.8,4.7,1.1,7.8,1.8
						c0,1.7-0.1,2.5-0.1,4.2c-9.3-2.1-14-3.2-23.2-5.7c-0.1-1.8-0.2-2.7-0.3-4.5c3.1,0.9,4.6,1.3,7.7,2.1
						c-0.3-6.7-0.4-10.1-0.7-16.8c-3.1-0.9-4.6-1.3-7.7-2.2C1050.5,507.7,1050.5,506.8,1050.4,505.1z"/>
					<path class="st28" d="M1109.2,531.4c-1.4,8.1-7.6,11-16.1,9.5c-8.5-1.6-13.8-6.7-13.4-15.4c0.4-8.5,6.6-11,16-9
						C1105,518.4,1110.6,523.3,1109.2,531.4z M1093.6,536.5c4,0.8,6.3-1.5,7-6.7c0.7-5.1-1-8.2-5.3-9.1c-4.4-0.9-6.6,1.4-7,6.6
						C1087.9,532.7,1089.5,535.8,1093.6,536.5z"/>
					<path class="st28" d="M1142.2,536c-2.6,7.6-9.4,10.6-18,9.6c-8.6-1-13.5-5.6-12-13.7c1.5-8,8.4-10.6,17.9-9.1
						C1139.7,524.2,1144.8,528.5,1142.2,536z M1125.3,541.6c4.1,0.5,6.8-1.7,8.2-6.6c1.4-4.8,0-7.6-4.3-8.2c-4.4-0.7-7,1.6-8.2,6.5
						C1119.9,538.2,1121.2,541,1125.3,541.6z"/>
					<path class="st28" d="M1175.7,538.7c-3.8,7.2-11.3,10.3-19.9,9.8c-8.7-0.5-13.1-4.5-10.4-12.1c2.7-7.5,10.2-10.2,19.9-9.3
						C1174.8,527.9,1179.4,531.6,1175.7,538.7z M1157.4,544.7c4.1,0.3,7.2-1.9,9.4-6.5c2.2-4.5,1.1-7-3.3-7.4
						c-4.5-0.4-7.5,1.8-9.4,6.4C1152.3,541.9,1153.2,544.4,1157.4,544.7z"/>
					<path class="st28" d="M1188.1,529.1c7.1,0.4,10.6,0.5,17.7,0.6c-4.4,6.4-6.6,9.6-10.9,16.1c3.3,0,4.9,0,8.2-0.1
						c-1,1.3-1.5,2-2.4,3.3c-9.8,0.2-14.7,0.2-24.4,0c0.8-1.4,1.2-2.1,1.9-3.4c3.3,0.1,4.9,0.1,8.2,0.2c3.2-5.2,4.8-7.7,8.1-12.9
						c-3.3-0.1-4.9-0.2-8.2-0.3C1187,531.1,1187.4,530.4,1188.1,529.1z"/>
					<path class="st28" d="M1243.5,538c-6.4,6.5-15.1,10-23.9,10.5c-8.8,0.5-12.2-2.4-7-9.2c5.1-6.6,14-9.8,23.9-10
						C1246.3,529,1249.8,531.6,1243.5,538z M1222.6,545.1c4.2-0.2,8.1-2.4,11.9-6.6c3.7-4.1,3.5-6-1-5.9c-4.6,0.2-8.5,2.3-11.9,6.5
						C1218.2,543.3,1218.4,545.3,1222.6,545.1z"/>
					<path class="st28" d="M971.8,535.9c3.6,11.7,1,15.5-5.1,12.7c-8.7-4.1-14-14.3-17.1-23.2c-4.3-12.3-1.9-15.8,5.1-12.2
						C963.4,517.6,969,526.7,971.8,535.9z M964.6,542.3c3,1.4,3.2-1.8,0.7-9.3c-2.5-7.4-5.3-12-8.5-13.6c-3.3-1.6-3.4,1.6-0.7,9.2
						C958.8,536.3,961.5,540.9,964.6,542.3z"/>
					<path class="st28" d="M996.9,546c2.8,10.9-0.2,14.5-6.7,12.1c-6.5-2.4-12.4-9.5-16.1-21.2c-3.6-11.5-0.6-14.7,6.6-11.6
						C988,528.3,994.2,535.2,996.9,546z M988.6,552.2c3.1,1.2,3.6-1.8,1.7-8.8c-1.9-6.9-4.5-11.1-7.8-12.5c-3.4-1.4-3.8,1.6-1.7,8.7
						C982.9,546.8,985.4,551,988.6,552.2z"/>
					<path class="st28" d="M1022.6,554.5c1.9,10.1-1.7,13.6-8.3,11.6c-6.7-2-12.2-8.4-15-19.3c-2.7-10.7,0.8-13.8,8.3-11.2
						C1015,538.3,1020.8,544.5,1022.6,554.5z M1013.1,560.7c3.2,1,4-1.8,2.7-8.3c-1.3-6.4-3.6-10.2-7-11.4c-3.5-1.2-4.2,1.6-2.7,8.2
						C1007.6,555.9,1009.9,559.7,1013.1,560.7z"/>
					<path class="st28" d="M1025.5,542c5.5,1.7,8.2,2.5,13.7,4c1.1,9,1.6,13.4,2.7,22.4c2.5,0.6,3.8,0.9,6.4,1.5
						c0.2,1.8,0.3,2.7,0.4,4.5c-7.6-1.6-11.4-2.5-18.9-4.5c-0.3-1.9-0.5-2.9-0.8-4.8c2.5,0.7,3.8,1,6.3,1.6
						c-1-7.2-1.6-10.9-2.6-18.1c-2.6-0.7-3.8-1.1-6.4-1.9C1026,544.9,1025.8,544,1025.5,542z"/>
					<path class="st28" d="M1075.5,566.8c-0.3,8.7-4.9,12.1-11.8,10.9c-6.9-1.2-11.7-6.4-12.4-15.7c-0.7-9.2,4-12.2,11.7-10.5
						C1070.7,553.2,1075.7,558.2,1075.5,566.8z M1063.6,573.1c3.3,0.6,4.8-2,4.8-7.6c0-5.5-1.7-8.7-5.3-9.5
						c-3.6-0.8-5.1,1.8-4.8,7.5C1058.6,569.3,1060.2,572.5,1063.6,573.1z"/>
					<path class="st28" d="M1081.5,555.7c5.7,1,8.5,1.5,14.2,2.3c-1,7.8-1.5,11.6-2.5,19.4c2.6,0.3,3.9,0.4,6.5,0.7
						c-0.3,1.6-0.4,2.4-0.6,3.9c-7.8-0.7-11.7-1.1-19.4-2.2c0.1-1.7,0.1-2.5,0.2-4.2c2.6,0.4,3.9,0.5,6.5,0.9
						c0.6-6.3,0.8-9.4,1.4-15.7c-2.6-0.4-4-0.6-6.6-1.1C1081.4,558.1,1081.4,557.3,1081.5,555.7z"/>
					<path class="st28" d="M1129.8,572.7c-2.6,7.6-8.4,11-15.4,10.7c-7-0.4-10.9-4.5-9.4-12.5c1.5-8,7.4-11,15.4-10.3
						C1128.3,561.4,1132.3,565.2,1129.8,572.7z M1115.5,579.4c3.4,0.2,5.7-2.2,7.1-7c1.4-4.8,0.4-7.4-3.3-7.7c-3.7-0.3-6,2-7.1,7
						C1111.1,576.5,1112.1,579.2,1115.5,579.4z"/>
					<path class="st28" d="M1139.2,562.4c5.8,0.3,8.7,0.4,14.5,0.6c-3.2,6.8-4.8,10.2-8,17c2.6,0,4,0,6.6-0.1
						c-0.7,1.4-1.1,2.1-1.8,3.5c-7.9,0.3-11.8,0.3-19.7,0.2c0.5-1.5,0.8-2.2,1.4-3.6c2.6,0.1,4,0.1,6.6,0.1
						c2.3-5.5,3.5-8.2,5.8-13.7c-2.7-0.1-4-0.2-6.7-0.3C1138.4,564.6,1138.7,563.9,1139.2,562.4z"/>
					<path class="st28" d="M1185,572.1c-5.1,6.8-12.1,10.4-19.1,10.9c-7.1,0.5-9.9-2.6-6-9.7c3.9-7,11-10.3,19.1-10.5
						C1187,562.5,1190,565.4,1185,572.1z M1168.2,579.4c3.4-0.2,6.5-2.5,9.5-6.8c2.9-4.3,2.7-6.4-1-6.3c-3.8,0.1-6.8,2.4-9.5,6.7
						C1164.5,577.4,1164.8,579.6,1168.2,579.4z"/>
					<path class="st28" d="M1198,562.2c5.9-0.4,8.8-0.6,14.7-1.2c-5.6,6.1-8.4,9.2-14,15.3c2.7-0.3,4-0.5,6.6-0.9
						c-1.2,1.3-1.8,1.9-3,3.1c-7.9,1.2-11.9,1.7-19.8,2.6c1-1.3,1.5-1.9,2.6-3.2c2.7-0.3,4-0.4,6.6-0.7c4.2-4.9,6.3-7.4,10.4-12.3
						c-2.7,0.2-4.1,0.3-6.8,0.5C1196.5,564.1,1197,563.5,1198,562.2z"/>
					<path class="st28" d="M967.4,569.3c4.3,1.8,6.4,2.6,10.7,4.3c3.1,9.3,6.2,18.7,9.3,28c2,0.6,2.9,0.9,4.9,1.5
						c0.7,2.3,1.1,3.4,1.8,5.7c-5.9-1.7-8.8-2.6-14.6-4.5c-0.9-2.4-1.3-3.6-2.1-6c1.9,0.7,2.9,1,4.9,1.7c-3.1-9.1-4.7-13.6-7.8-22.7
						c-2-0.8-3-1.2-5-2C968.6,572.9,968.2,571.7,967.4,569.3z"/>
					<path class="st28" d="M1010.6,598.6c2.8,10.9,0.6,15.2-4.7,13.9c-5.3-1.3-10.5-7.6-14.1-19.3c-3.6-11.5-1.4-15.5,4.7-13.5
						C1002.5,581.6,1007.8,587.8,1010.6,598.6z M1004.2,606.7c2.5,0.7,2.8-2.6,0.9-9.6c-1.9-6.9-4.2-10.9-7-11.7
						c-2.8-0.9-3,2.4-0.9,9.5C999.4,602,1001.6,606,1004.2,606.7z"/>
					<path class="st28" d="M1011,584.6c4.4,1.2,6.6,1.8,11.1,2.9c2,9.7,3,14.5,5,24.1c2,0.4,3,0.6,5,0.9c0.4,2,0.6,2.9,0.9,4.9
						c-6-0.9-9-1.5-15-2.7c-0.5-2.1-0.8-3.1-1.3-5.2c2,0.4,3,0.7,5,1.1c-1.8-7.8-2.7-11.7-4.4-19.5c-2.1-0.5-3.1-0.8-5.1-1.3
						C1011.8,587.7,1011.6,586.6,1011,584.6z"/>
					<path class="st28" d="M1052.8,606.8c0.8,9.4-2.4,13.4-7.8,12.8c-5.4-0.6-9.8-5.8-11.5-15.9c-1.7-9.9,1.5-13.6,7.8-12.4
						C1047.5,592.5,1052,597.5,1052.8,606.8z M1044.4,614.6c2.6,0.3,3.5-2.5,2.8-8.6c-0.7-5.9-2.4-9.2-5.2-9.8
						c-2.9-0.5-3.7,2.4-2.8,8.5C1040.1,610.9,1041.7,614.2,1044.4,614.6z"/>
					<path class="st28" d="M1056.2,594.3c4.5,0.7,6.8,1,11.4,1.6c0.1,8.3,0.1,12.5,0.2,20.8c2,0.1,3.1,0.2,5.1,0.3
						c0,1.7-0.1,2.5-0.1,4.2c-6.1-0.2-9.1-0.4-15.2-0.9c-0.1-1.8-0.2-2.7-0.3-4.5c2,0.2,3.1,0.3,5.1,0.5c-0.3-6.7-0.4-10.1-0.7-16.8
						c-2.1-0.3-3.2-0.4-5.3-0.7C1056.4,597,1056.3,596.1,1056.2,594.3z"/>
					<path class="st28" d="M1095.7,609.9c-1.4,8.1-5.6,12-11,12c-5.5,0-8.9-4.1-8.5-12.8c0.4-8.5,4.7-12.1,11.1-11.7
						C1093.6,597.9,1097.1,601.9,1095.7,609.9z M1085.1,617.6c2.6,0,4.2-2.6,4.9-7.8c0.7-5.1-0.4-7.9-3.3-8
						c-2.9-0.2-4.5,2.4-4.9,7.7C1081.5,614.8,1082.5,617.5,1085.1,617.6z"/>
					<path class="st28" d="M1102.3,598.6c4.6,0.2,6.9,0.2,11.6,0.2c-2.1,7.2-3.1,10.9-5.2,18.1c2.1-0.1,3.1-0.2,5.1-0.3
						c-0.5,1.5-0.7,2.2-1.2,3.7c-6.1,0.5-9.1,0.7-15.2,0.9c0.3-1.6,0.5-2.3,0.8-3.9c2.1-0.1,3.1-0.1,5.1-0.2
						c1.4-5.8,2.1-8.8,3.5-14.6c-2.1,0-3.2,0-5.3-0.1C1101.9,601,1102,600.2,1102.3,598.6z"/>
					<path class="st28" d="M1125.6,598.7c4.6-0.1,7-0.2,11.6-0.5c-3.2,6.8-4.8,10.2-8,17c2-0.2,3.1-0.4,5.1-0.6
						c-0.7,1.4-1.1,2.1-1.8,3.5c-6,0.9-9.1,1.2-15.2,1.8c0.5-1.5,0.8-2.2,1.4-3.6c2.1-0.2,3.1-0.3,5.1-0.5c2.3-5.5,3.5-8.2,5.8-13.7
						c-2.1,0.1-3.2,0.2-5.4,0.2C1124.8,600.9,1125.1,600.1,1125.6,598.7z"/>
					<path class="st28" d="M1160.5,604.8c-5.1,6.8-10.9,10.7-16.3,11.7c-5.4,1-7.2-1.7-3.2-8.9c3.9-7,9.9-10.6,16.3-11.3
						C1163.7,595.5,1165.5,598.1,1160.5,604.8z M1146.5,612.8c2.6-0.4,5.4-2.9,8.3-7.2c2.9-4.3,3.1-6.3,0.2-5.9
						c-3,0.4-5.7,2.7-8.3,7.1C1144,611.2,1143.9,613.3,1146.5,612.8z"/>
					<path class="st28" d="M1181.9,600.4c-6.4,6.5-12.8,10.4-18.1,11.8c-5.4,1.3-6.5-1-1.3-7.8c5.1-6.6,11.8-10.4,18.2-11.4
						C1187,591.9,1188.2,594.1,1181.9,600.4z M1166.8,608.8c2.6-0.6,5.7-3,9.5-7.1c3.7-4.1,4.3-5.9,1.4-5.4c-2.9,0.5-6.1,2.9-9.5,7
						C1164.7,607.5,1164.2,609.4,1166.8,608.8z"/>
					<path class="st28" d="M988.7,629.5c3.5,0.9,5.2,1.3,8.7,2.1c3.1,9.3,6.2,18.7,9.3,28c1.5,0.2,2.3,0.3,3.9,0.4
						c0.7,2.3,1.1,3.4,1.8,5.7c-4.6-0.4-6.9-0.6-11.5-1.2c-0.9-2.4-1.3-3.6-2.1-6c1.5,0.2,2.3,0.4,3.9,0.6
						c-3.1-9.1-4.7-13.6-7.8-22.7c-1.6-0.4-2.4-0.5-4-0.9C990,633.1,989.6,631.9,988.7,629.5z"/>
					<path class="st28" d="M1024.2,651.2c2.8,10.9,1.4,15.9-2.6,15.7c-4.1-0.2-8.5-5.7-12.1-17.4c-3.6-11.5-2.1-16.3,2.7-15.4
						C1016.9,634.9,1021.4,640.4,1024.2,651.2z M1019.9,661.1c2,0.1,1.9-3.3,0-10.3c-1.9-6.9-3.9-10.6-6.1-11
						c-2.2-0.3-2.1,3.2,0,10.2C1015.9,657.2,1017.9,660.9,1019.9,661.1z"/>
					<path class="st28" d="M1023.7,636.4c3.5,0.5,5.3,0.7,8.8,1c2,9.7,3,14.5,5,24.1c1.5,0,2.3,0,3.8,0c0.4,2,0.6,2.9,0.9,4.9
						c-4.5,0.2-6.8,0.2-11.4,0.2c-0.5-2.1-0.8-3.1-1.3-5.2c1.5,0.1,2.3,0.1,3.9,0.1c-1.8-7.8-2.7-11.7-4.4-19.5
						c-1.6-0.2-2.4-0.3-4-0.4C1024.5,639.5,1024.3,638.4,1023.7,636.4z"/>
					<path class="st28" d="M1056.7,652.1c0.8,9.4-1.4,14-5.5,14.3c-4.1,0.3-7.5-4.2-9.3-14.2c-1.7-9.9,0.6-14.3,5.5-14
						C1052.3,638.4,1055.9,642.8,1056.7,652.1z M1050.6,661.4c2-0.1,2.5-3.2,1.9-9.2c-0.7-5.9-2.1-9-4.3-9.1c-2.2-0.1-2.8,3-1.9,9.1
						C1047.2,658.4,1048.6,661.5,1050.6,661.4z"/>
					<path class="st28" d="M1059.1,639c3.5,0,5.3,0,8.8,0c0.1,8.3,0.1,12.5,0.2,20.8c1.5-0.2,2.3-0.3,3.8-0.5c0,1.7-0.1,2.5-0.1,4.2
						c-4.4,0.7-6.7,1-11.2,1.5c-0.1-1.8-0.2-2.7-0.3-4.5c1.5-0.1,2.3-0.2,3.8-0.4c-0.3-6.7-0.4-10.1-0.7-16.8c-1.6,0-2.4,0-4.1,0
						C1059.3,641.7,1059.3,640.8,1059.1,639z"/>
					<path class="st28" d="M1089,649.1c-1.4,8.1-4.6,12.5-8.5,13.3c-4,0.8-6.4-2.8-6-11.4c0.4-8.5,3.7-12.7,8.6-13
						C1087.8,637.6,1090.4,641.1,1089,649.1z M1080.9,658.1c1.9-0.3,3.2-3.1,3.9-8.3c0.7-5.1,0-7.7-2.2-7.5c-2.2,0.2-3.5,3-3.9,8.3
						C1078.3,655.8,1079,658.4,1080.9,658.1z"/>
					<path class="st28" d="M1104.9,646.2c-2.6,7.6-6.3,11.9-10.2,12.9c-3.9,1-5.8-2.1-4.3-10.2c1.5-8,5.4-12,10.2-12.6
						C1105.5,635.7,1107.4,638.7,1104.9,646.2z M1095.8,655.1c1.9-0.4,3.5-3.1,4.9-8c1.4-4.8,1.1-7.1-1.1-6.8
						c-2.2,0.3-3.8,3-4.9,7.9C1093.6,653.2,1093.9,655.5,1095.8,655.1z"/>
					<path class="st28" d="M1112,634.9c3.5-0.6,5.2-0.9,8.7-1.6c-3.2,6.8-4.8,10.2-8,17c1.5-0.4,2.2-0.7,3.6-1.2
						c-0.7,1.4-1.1,2.1-1.8,3.5c-4.2,1.5-6.3,2.2-10.6,3.5c0.5-1.5,0.8-2.2,1.4-3.6c1.5-0.4,2.2-0.6,3.7-1c2.3-5.5,3.5-8.2,5.8-13.7
						c-1.6,0.3-2.4,0.5-4,0.8C1111.2,637.1,1111.5,636.4,1112,634.9z"/>
					<path class="st28" d="M1136,637.5c-5.1,6.8-9.8,11-13.5,12.4c-3.7,1.5-4.4-0.9-0.5-8c3.9-7,8.8-11,13.6-12.2
						C1140.3,628.5,1141,630.8,1136,637.5z M1124.8,646.3c1.8-0.7,4.2-3.2,7.2-7.5c2.9-4.3,3.4-6.2,1.3-5.6
						c-2.2,0.6-4.5,3.1-7.2,7.4C1123.4,645.1,1122.9,647,1124.8,646.3z"/>
					<path class="st28" d="M1146.5,627c3.4-1,5.1-1.5,8.4-2.6c-5.6,6.1-8.4,9.2-14,15.3c1.4-0.6,2.1-0.9,3.5-1.6
						c-1.2,1.3-1.8,1.9-3,3.1c-4,2-6,3-10.1,4.8c1-1.3,1.5-1.9,2.6-3.2c1.4-0.6,2.1-0.9,3.5-1.5c4.2-4.9,6.3-7.4,10.4-12.3
						c-1.5,0.5-2.3,0.8-3.9,1.3C1145,628.9,1145.5,628.3,1146.5,627z"/>
				</g>
			</g>
		</g>
		<path class="st15" d="M989,550c0,0,6,108,87,103s119.9-75,119.9-75l-3.9-29C1192,549,1051,522,989,550z"/>
		<path class="st87" d="M995.2,583.9c8.9,31.2,30.2,72.2,80.8,69.1c29.9-1.8,54.1-12.5,72.6-25.3"/>
		<path class="st88" d="M1057.7,537.5c-16.9,0.6-33.3,2.3-47.7,5.6c-7.7,1.8-14.7,4.1-21,6.9c0,0,6,108.8,87,103.7
			c29.9-1.9,54.1-12.6,72.6-25.5"/>
		<path class="st87" d="M909.5,583.9c-8.9,31.2-30.2,72.2-80.8,69.1c-29.9-1.8-54.1-12.5-72.6-25.3"/>
		<path class="st88" d="M847,537.5c16.9,0.6,33.3,2.3,47.7,5.6c7.7,1.8,14.7,4.1,21,6.9c0,0-6,108.8-87,103.7
			c-29.9-1.9-54.1-12.6-72.6-25.5"/>
		<path class="st15" d="M620,440c0,0,143-95,333-88s327,82,327,82"/>
	</g>
	<path class="st19" d="M1318,1208c0,0,20.3-118.5,118.1-203.3"/>
	<path class="st19" d="M605.1,1208c0,0-20.3-118.5-118.1-203.3"/>
</g>
<path class="st2" d="M919,629c0,0-45.9,85.8-31.4,119.2c9.4,21.6,42,4.5,42,4.5s-35.1,2-29.6-36.7C906,674,919,629,919,629z"/>
<g>
	<circle class="st117" cx="1105" cy="1052" r="20"/>
	<circle class="st19" cx="1105" cy="1052" r="11"/>
</g>
<g>
	<circle class="st117" cx="832" cy="1052" r="20"/>
	<circle class="st19" cx="832" cy="1052" r="11"/>
</g>
<path class="st128" d="M1105,1052c0,0,12.5,72.5-4,144c-29,126,40,187,40,187"/>
<path class="st128" d="M832,1052c0,0,64,98,6,233s14,210,14,210"/>
<g>
	<polygon class="st37" points="1351.3,1688 552,1688 536.4,1186 1357,1186 	"/>
	<polygon class="st37" points="1357,1186 536,1186 548,1173 1343,1173 	"/>
	<rect x="552" y="1686" class="st37" width="799" height="38"/>
</g>
<g>
	<path class="st50" d="M859.3,1357.9v112.3c0,0-5.3,82.9,98.1,116.8c0,0,77.1-10,94.6-102.8c1.2-6.1,1.6-12.3,1.5-18.5l-2.5-106.9
		c0,0-33.9-26.7-95.4-26.7C883.4,1332,859.3,1359.4,859.3,1357.9z"/>
	<ellipse class="st27" cx="1003.7" cy="1434.1" rx="21" ry="6.7"/>
	<ellipse class="st27" cx="911.9" cy="1434.1" rx="21" ry="6.7"/>
	<path class="st27" d="M1035.1,1402.5c-36.2-17-61.8,8.9-61.8,8.9s2.4,8.8,25.5-3C1021.9,1396.5,1035.1,1402.5,1035.1,1402.5z"/>
	<path class="st27" d="M879.7,1402.5c36.2-17,61.8,8.9,61.8,8.9s-2.4,8.8-25.5-3C893,1396.5,879.7,1402.5,879.7,1402.5z"/>
	<polygon class="st27" points="944,1526.4 970.8,1526.4 957.4,1561.1 	"/>
	<polygon class="st27" points="947.6,1485.4 968.1,1485.4 973.4,1495.2 996.6,1495.2 1018.9,1478.2 1001.1,1509.4 965.4,1508.5 
		957.4,1496.9 949.4,1508.5 914.6,1508.5 896.7,1479.1 922.6,1496.9 941.3,1496.9 	"/>
	<path class="st15" d="M985.9,1467.5c0,0,24.1,17.8,53.5,0"/>
	<path class="st15" d="M874.9,1468.9c0,0,24.1,17.8,53.5,0"/>
</g>
</svg>
